# xmcd CD database file
#
# Track frame offsets:
#	150
#	30412
#	46962
#	82875
#	102625
#	121987
#	136900
#	155612
#	181775
#
# Disc length: 2732 seconds
#
# Revision: 0
# Processed by: cddbd v1.5.2PL0 Copyright (c) Steve Scherf et al.
# Submitted via: CDex 1.51
#
DISCID=690aaa09
DTITLE=Peter O'Mara - O'Mara-Darling-Elgart
DYEAR=1988
DGENRE=Jazz
TTITLE0=John De John
TTITLE1=Sit Outside
TTITLE2=Alabaster
TTITLE3=For Frank
TTITLE4=Line
TTITLE5=Pre - "B"
TTITLE6=One For The Big
TTITLE7=And Found
TTITLE8=Through The Darkness
EXTD=YEAR: 1988
EXTT0=
EXTT1=
EXTT2=
EXTT3=
EXTT4=
EXTT5=
EXTT6=
EXTT7=
EXTT8=
PLAYORDER=
